<?xml version="1.0" encoding="UTF-8" standalone="no"?>
<svg width="49px" height="23px" viewBox="0 0 49 23" version="1.1" xmlns="http://www.w3.org/2000/svg" xmlns:xlink="http://www.w3.org/1999/xlink">
    <defs>
        <polygon id="path-1" points="9.89828136 0.0133798062 0.0036244925 0.0133798062 0.0036244925 21.6932531 9.89828136 21.6932531"></polygon>
    </defs>
    <g id="3XN-search" stroke="none" stroke-width="1" fill="none" fill-rule="evenodd">
        <g id="search-menu-1440" transform="translate(-20.000000, -848.000000)">
            <g id="menu-closed-1440">
                <g id="menu">
                    <g id="logo" transform="translate(20.000000, 848.000000)">
                        <polygon id="Fill-1" fill="#494949" points="32.6486516 21.7442843 37.3808521 21.7442843 37.3808521 0.526460248 32.6486516 0.526460248"></polygon>
                        <g id="Group-19" transform="translate(0.000000, 0.050946)">
                            <g id="Group-4" transform="translate(38.190006, 0.000000)">
                                <mask id="mask-2" fill="white">
                                    <use xlink:href="#path-1"></use>
                                </mask>
                                <g id="Clip-3"></g>
                                <path d="M4.50677822,0.013294855 C2.20607604,0.013294855 0.56447182,1.30688849 0.0036244925,2.77760528 L0.0036244925,6.1966767 C0.48054941,4.97932671 1.63499427,4.12747906 2.78329847,4.12747906 C4.56613797,4.12747906 5.16587617,5.30468962 5.16587617,7.3178195 L5.16587617,21.6932531 L9.89828136,21.6932531 L9.89828136,6.34512883 C9.89828136,2.64486911 8.13181696,0.013294855 4.50677822,0.013294855" id="Fill-2" fill="#494949" mask="url(#mask-2)"></path>
                            </g>
                            <path d="M6.80447925,0.0294780491 C3.43141243,0.0294780491 0.669955748,2.23926984 0.512550057,6.68285213 L0.50006404,6.9519349 L4.68185634,6.9519349 L4.67776256,6.69092249 C4.64296547,4.89080762 5.59272152,3.9790694 6.80447925,3.88243746 L6.80447925,3.84633322 L6.80447925,0.0294780491 Z" id="Fill-5" fill="#494949"></path>
                            <path d="M4.52031593,15.0639202 L0.127489476,15.0639202 L0.135881717,15.3334277 C0.248255871,18.2340848 2.37906634,22.0749386 6.80443832,22.0749386 L6.80443832,20.1144785 L6.80443832,18.2058385 C5.37591514,18.0331753 4.52031593,16.6068455 4.52031593,15.3211098 L4.52031593,15.0639202 Z" id="Fill-7" fill="#494949"></path>
                            <path d="M7.61103502,3.85442482 C8.63652594,4.04344113 9.42662473,4.94710899 9.42662473,6.3292642 C9.42662473,7.88025983 8.63652594,8.8404202 7.61103502,8.9085935 L7.61103502,12.396263 C9.13187285,12.4565783 9.93425297,13.9793277 9.93425297,15.2809916 C9.93425297,16.9844746 8.94560604,18.1215457 7.61103502,18.234106 L7.61103502,22.0872778 C11.5205912,22.0872778 14.455624,19.0617426 14.455624,15.152503 C14.455624,12.6736285 13.0393821,10.8533377 11.7682647,10.1463318 C12.969788,9.30255446 13.8599796,7.82780249 13.8599796,6.0039013 C13.8599796,2.38392041 11.377309,0.0373572683 7.61103502,0.0373572683 L7.61103502,3.85442482 Z" id="Fill-9" fill="#494949"></path>
                            <polygon id="Fill-11" fill="#494949" points="19.2842943 11.7975697 12.6544239 21.665283 17.9763329 21.665283 21.8881406 15.6382112"></polygon>
                            <polygon id="Fill-13" fill="#494949" points="17.9764147 0.459309631 12.6545058 0.459309631 22.1049879 14.5338038 22.1049879 6.80728432"></polygon>
                            <polygon id="Fill-15" fill="#494949" points="32.3537974 0.459309631 27.0339353 0.459309631 23.1182385 6.48999178 25.7220848 10.3270229"></polygon>
                            <polygon id="Fill-17" fill="#494949" points="22.9053212 7.59097992 22.9053212 15.317287 27.0338944 21.6652617 32.3537564 21.6652617"></polygon>
                        </g>
                    </g>
                </g>
            </g>
        </g>
    </g>
</svg>