<?xml version="1.0" encoding="UTF-8" standalone="no"?>
<svg width="53px" height="22px" viewBox="0 0 53 22" version="1.1" xmlns="http://www.w3.org/2000/svg" xmlns:xlink="http://www.w3.org/1999/xlink">
    <defs>
        <polygon id="path-1" points="9.92443256 21.4812962 9.92443256 0.0331418043 0.0152109468 0.0331418043 0.0152109468 21.4812962 9.92443256 21.4812962"></polygon>
        <polygon id="path-3" points="16.7203129 21.8440796 0 21.8440796 0 0 16.7203129 0 16.7203129 21.8440796"></polygon>
    </defs>
    <g id="3XN-casepage" stroke="none" stroke-width="1" fill="none" fill-rule="evenodd">
        <g id="module-gxn-320" transform="translate(-26.000000, -6795.000000)">
            <g id="gxn-logo-green" transform="translate(26.000000, 6795.000000)">
                <g id="gxn-logo">
                    <polygon id="Fill-1" fill="#103727" points="37.5247623 21.6114239 42.1919163 21.6114239 42.1919163 0.658002083 37.5247623 0.658002083"></polygon>
                    <g id="Group-16" transform="translate(0.000000, 0.011606)">
                        <g id="Group-4" transform="translate(42.990184, 0.157558)">
                            <mask id="mask-2" fill="white">
                                <use xlink:href="#path-1"></use>
                            </mask>
                            <g id="Clip-3"></g>
                            <path d="M4.12915134,0.0331418043 C2.27528288,0.0331418043 0.35209528,1.30580838 0.0152109468,2.46957811 L0.0152109468,5.84711968 C0.446864929,4.8900104 1.53621357,4.30725575 2.44774355,4.30725575 C4.32639277,4.30725575 5.10832609,5.48320245 5.10832609,7.44125807 L5.10832609,21.4812962 L9.92449953,21.4812962 L9.92449953,7.60616894 C9.92449953,3.64169776 8.80601675,0.0331418043 4.12915134,0.0331418043" id="Fill-2" fill="#103727" mask="url(#mask-2)"></path>
                        </g>
                        <polygon id="Fill-5" fill="#103727" points="27.8538713 6.56840104 31.6831679 0.655963721 36.9309953 0.655963721 30.4176749 10.3599593"></polygon>
                        <polygon id="Fill-7" fill="#103727" points="27.6129957 15.3291691 31.684072 21.5975217 36.9318995 21.5975217 27.6129957 7.69804048"></polygon>
                        <polygon id="Fill-9" fill="#103727" points="26.5543216 15.6604869 22.725025 21.5729242 17.4771976 21.5729242 23.9905179 11.8689286"></polygon>
                        <polygon id="Fill-11" fill="#103727" points="26.794494 6.90065817 22.725092 0.632653535 17.4775994 0.632653535 26.794494 14.5317868"></polygon>
                        <g id="Group-15">
                            <mask id="mask-4" fill="white">
                                <use xlink:href="#path-3"></use>
                            </mask>
                            <g id="Clip-14"></g>
                            <path d="M9.93808784,9.33601594 L9.93808784,12.755655 L12.5658526,12.755655 L12.5658526,17.6226131 C12.2289683,17.7816094 11.441677,17.9082498 10.4856086,17.9082498 C10.2960693,17.9082498 10.1082044,17.8960729 9.92435796,17.8818084 L9.92435796,21.8041821 C10.0733774,21.8080092 10.2207224,21.8142716 10.3734255,21.8142716 C12.8752772,21.8142716 15.3985609,21.1167056 16.7203129,20.605969 L16.7203129,9.33601594 L9.93808784,9.33601594 Z M15.1798875,5.2490793 L16.0796969,1.34514503 C15.1507534,0.868503909 13.2680857,-0.0301559464 10.8221581,-0.0301559464 C10.5184264,-0.0301559464 10.2207224,-0.0179789836 9.92435796,0.00219998332 L9.92435796,4.37477337 C10.2090018,4.34833197 10.4973292,4.33024048 10.7953681,4.33024048 C12.8752772,4.33024048 14.1407701,4.71050963 15.1798875,5.2490793 L15.1798875,5.2490793 Z M0,11.1455126 C0,14.2896044 0.955733487,17.0819559 2.67029391,18.9554687 C4.19297092,20.5920525 6.29263769,21.5488138 9.10391401,21.7659117 L9.10391401,17.759343 C6.3408597,17.1623239 4.49871187,14.7258876 4.49871187,10.8922318 C4.49871187,7.02413257 6.40080234,5.04589798 9.10391401,4.49723883 L9.10391401,0.0783929792 C3.78274894,0.767956988 0.0251156312,4.70842216 0,11.1455126 L0,11.1455126 Z" id="Fill-13" fill="#103727" mask="url(#mask-4)"></path>
                        </g>
                    </g>
                </g>
            </g>
        </g>
    </g>
</svg>