<svg width="230" height="100" viewBox="0 0 230 100" fill="none" xmlns="http://www.w3.org/2000/svg">
<path d="M50.2273 9.09091H55.2727L67.1364 38.0682H67.5455L79.4091 9.09091H84.4545V44H80.5V17.4773H80.1591L69.25 44H65.4318L54.5227 17.4773H54.1818V44H50.2273V9.09091ZM100.089 44.6136C98.4304 44.6136 96.9247 44.3011 95.5724 43.6761C94.2202 43.0398 93.1463 42.125 92.3509 40.9318C91.5554 39.7273 91.1577 38.2727 91.1577 36.5682C91.1577 35.0682 91.4531 33.8523 92.044 32.9205C92.6349 31.9773 93.4247 31.2386 94.4134 30.7045C95.402 30.1705 96.4929 29.7727 97.6861 29.5114C98.8906 29.2386 100.101 29.0227 101.317 28.8636C102.908 28.6591 104.197 28.5057 105.186 28.4034C106.186 28.2898 106.913 28.1023 107.368 27.8409C107.834 27.5795 108.067 27.125 108.067 26.4773V26.3409C108.067 24.6591 107.607 23.3523 106.686 22.4205C105.777 21.4886 104.396 21.0227 102.544 21.0227C100.624 21.0227 99.1179 21.4432 98.027 22.2841C96.9361 23.125 96.169 24.0227 95.7259 24.9773L91.9077 23.6136C92.5895 22.0227 93.4986 20.7841 94.6349 19.8977C95.7827 19 97.0327 18.375 98.3849 18.0227C99.7486 17.6591 101.089 17.4773 102.408 17.4773C103.249 17.4773 104.214 17.5795 105.305 17.7841C106.408 17.9773 107.47 18.3807 108.493 18.9943C109.527 19.608 110.385 20.5341 111.067 21.7727C111.749 23.0114 112.089 24.6705 112.089 26.75V44H108.067V40.4545H107.862C107.589 41.0227 107.135 41.6307 106.499 42.2784C105.862 42.9261 105.016 43.4773 103.959 43.9318C102.902 44.3864 101.612 44.6136 100.089 44.6136ZM100.703 41C102.294 41 103.635 40.6875 104.726 40.0625C105.828 39.4375 106.658 38.6307 107.214 37.642C107.783 36.6534 108.067 35.6136 108.067 34.5227V30.8409C107.896 31.0455 107.521 31.233 106.942 31.4034C106.374 31.5625 105.714 31.7045 104.964 31.8295C104.226 31.9432 103.504 32.0455 102.8 32.1364C102.107 32.2159 101.544 32.2841 101.112 32.3409C100.067 32.4773 99.0895 32.6989 98.1804 33.0057C97.2827 33.3011 96.5554 33.75 95.9986 34.3523C95.4531 34.9432 95.1804 35.75 95.1804 36.7727C95.1804 38.1705 95.6974 39.2273 96.7315 39.9432C97.777 40.6477 99.1009 41 100.703 41ZM130.818 17.8182V21.2273H117.25V17.8182H130.818ZM121.205 11.5455H125.227V36.5C125.227 37.6364 125.392 38.4886 125.722 39.0568C126.063 39.6136 126.494 39.9886 127.017 40.1818C127.551 40.3636 128.114 40.4545 128.705 40.4545C129.148 40.4545 129.511 40.4318 129.795 40.3864C130.08 40.3295 130.307 40.2841 130.477 40.25L131.295 43.8636C131.023 43.9659 130.642 44.0682 130.153 44.1705C129.665 44.2841 129.045 44.3409 128.295 44.3409C127.159 44.3409 126.045 44.0966 124.955 43.608C123.875 43.1193 122.977 42.375 122.261 41.375C121.557 40.375 121.205 39.1136 121.205 37.5909V11.5455ZM147.565 44.5455C145.043 44.5455 142.866 43.9886 141.037 42.875C139.219 41.75 137.815 40.1818 136.827 38.1705C135.849 36.1477 135.361 33.7955 135.361 31.1136C135.361 28.4318 135.849 26.0682 136.827 24.0227C137.815 21.9659 139.19 20.3636 140.952 19.2159C142.724 18.0568 144.793 17.4773 147.156 17.4773C148.52 17.4773 149.866 17.7045 151.196 18.1591C152.526 18.6136 153.736 19.3523 154.827 20.375C155.918 21.3864 156.787 22.7273 157.435 24.3977C158.082 26.0682 158.406 28.125 158.406 30.5682V32.2727H138.224V28.7955H154.315C154.315 27.3182 154.02 26 153.429 24.8409C152.849 23.6818 152.02 22.767 150.94 22.0966C149.872 21.4261 148.611 21.0909 147.156 21.0909C145.554 21.0909 144.168 21.4886 142.997 22.2841C141.838 23.0682 140.946 24.0909 140.321 25.3523C139.696 26.6136 139.384 27.9659 139.384 29.4091V31.7273C139.384 33.7045 139.724 35.3807 140.406 36.7557C141.099 38.1193 142.06 39.1591 143.287 39.875C144.514 40.5795 145.94 40.9318 147.565 40.9318C148.622 40.9318 149.577 40.7841 150.429 40.4886C151.293 40.1818 152.037 39.7273 152.662 39.125C153.287 38.5114 153.77 37.75 154.111 36.8409L157.997 37.9318C157.588 39.25 156.901 40.4091 155.935 41.4091C154.969 42.3977 153.776 43.1705 152.355 43.7273C150.935 44.2727 149.338 44.5455 147.565 44.5455ZM164.526 44V17.8182H168.412V21.7727H168.685C169.162 20.4773 170.026 19.4261 171.276 18.6193C172.526 17.8125 173.935 17.4091 175.503 17.4091C175.798 17.4091 176.168 17.4148 176.611 17.4261C177.054 17.4375 177.389 17.4545 177.616 17.4773V21.5682C177.48 21.5341 177.168 21.483 176.679 21.4148C176.202 21.3352 175.696 21.2955 175.162 21.2955C173.889 21.2955 172.753 21.5625 171.753 22.0966C170.764 22.6193 169.98 23.3466 169.401 24.2784C168.832 25.1989 168.548 26.25 168.548 27.4318V44H164.526ZM182.385 44V17.8182H186.408V44H182.385ZM184.43 13.4545C183.646 13.4545 182.97 13.1875 182.402 12.6534C181.845 12.1193 181.567 11.4773 181.567 10.7273C181.567 9.97727 181.845 9.33523 182.402 8.80114C182.97 8.26705 183.646 8 184.43 8C185.214 8 185.885 8.26705 186.442 8.80114C187.01 9.33523 187.294 9.97727 187.294 10.7273C187.294 11.4773 187.01 12.1193 186.442 12.6534C185.885 13.1875 185.214 13.4545 184.43 13.4545ZM201.48 44.6136C199.821 44.6136 198.315 44.3011 196.963 43.6761C195.611 43.0398 194.537 42.125 193.741 40.9318C192.946 39.7273 192.548 38.2727 192.548 36.5682C192.548 35.0682 192.844 33.8523 193.435 32.9205C194.026 31.9773 194.815 31.2386 195.804 30.7045C196.793 30.1705 197.884 29.7727 199.077 29.5114C200.281 29.2386 201.491 29.0227 202.707 28.8636C204.298 28.6591 205.588 28.5057 206.577 28.4034C207.577 28.2898 208.304 28.1023 208.759 27.8409C209.224 27.5795 209.457 27.125 209.457 26.4773V26.3409C209.457 24.6591 208.997 23.3523 208.077 22.4205C207.168 21.4886 205.787 21.0227 203.935 21.0227C202.014 21.0227 200.509 21.4432 199.418 22.2841C198.327 23.125 197.56 24.0227 197.116 24.9773L193.298 23.6136C193.98 22.0227 194.889 20.7841 196.026 19.8977C197.173 19 198.423 18.375 199.776 18.0227C201.139 17.6591 202.48 17.4773 203.798 17.4773C204.639 17.4773 205.605 17.5795 206.696 17.7841C207.798 17.9773 208.861 18.3807 209.884 18.9943C210.918 19.608 211.776 20.5341 212.457 21.7727C213.139 23.0114 213.48 24.6705 213.48 26.75V44H209.457V40.4545H209.253C208.98 41.0227 208.526 41.6307 207.889 42.2784C207.253 42.9261 206.406 43.4773 205.349 43.9318C204.293 44.3864 203.003 44.6136 201.48 44.6136ZM202.094 41C203.685 41 205.026 40.6875 206.116 40.0625C207.219 39.4375 208.048 38.6307 208.605 37.642C209.173 36.6534 209.457 35.6136 209.457 34.5227V30.8409C209.287 31.0455 208.912 31.233 208.332 31.4034C207.764 31.5625 207.105 31.7045 206.355 31.8295C205.616 31.9432 204.895 32.0455 204.19 32.1364C203.497 32.2159 202.935 32.2841 202.503 32.3409C201.457 32.4773 200.48 32.6989 199.571 33.0057C198.673 33.3011 197.946 33.75 197.389 34.3523C196.844 34.9432 196.571 35.75 196.571 36.7727C196.571 38.1705 197.088 39.2273 198.122 39.9432C199.168 40.6477 200.491 41 202.094 41ZM224.845 9.09091V44H220.822V9.09091H224.845ZM54.4545 63.0909V98H50.2273V63.0909H54.4545ZM66.4077 82.25V98H62.3849V71.8182H66.2713V75.9091H66.6122C67.2259 74.5795 68.1577 73.5114 69.4077 72.7045C70.6577 71.8864 72.2713 71.4773 74.2486 71.4773C76.0213 71.4773 77.5724 71.8409 78.902 72.5682C80.2315 73.2841 81.2656 74.375 82.0043 75.8409C82.7429 77.2955 83.1122 79.1364 83.1122 81.3636V98H79.0895V81.6364C79.0895 79.5795 78.5554 77.9773 77.4872 76.8295C76.419 75.6705 74.9531 75.0909 73.0895 75.0909C71.8054 75.0909 70.6577 75.3693 69.6463 75.9261C68.6463 76.483 67.8565 77.2955 67.277 78.3636C66.6974 79.4318 66.4077 80.7273 66.4077 82.25ZM100.349 98.5455C98.1676 98.5455 96.2415 97.9943 94.571 96.892C92.9006 95.7784 91.5938 94.2102 90.6506 92.1875C89.7074 90.1534 89.2358 87.75 89.2358 84.9773C89.2358 82.2273 89.7074 79.8409 90.6506 77.8182C91.5938 75.7955 92.9063 74.233 94.5881 73.1307C96.2699 72.0284 98.2131 71.4773 100.418 71.4773C102.122 71.4773 103.469 71.7614 104.457 72.3295C105.457 72.8864 106.219 73.5227 106.741 74.2386C107.276 74.9432 107.69 75.5227 107.986 75.9773H108.327V63.0909H112.349V98H108.463V93.9773H107.986C107.69 94.4545 107.27 95.0568 106.724 95.7841C106.179 96.5 105.401 97.142 104.389 97.7102C103.378 98.267 102.031 98.5455 100.349 98.5455ZM100.895 94.9318C102.509 94.9318 103.872 94.5114 104.986 93.6705C106.099 92.8182 106.946 91.642 107.526 90.142C108.105 88.6307 108.395 86.8864 108.395 84.9091C108.395 82.9545 108.111 81.2443 107.543 79.7784C106.974 78.3011 106.134 77.1534 105.02 76.3352C103.906 75.5057 102.531 75.0909 100.895 75.0909C99.1903 75.0909 97.7699 75.5284 96.6335 76.4034C95.5085 77.267 94.6619 78.4432 94.0938 79.9318C93.5369 81.4091 93.2585 83.0682 93.2585 84.9091C93.2585 86.7727 93.5426 88.4659 94.1108 89.9886C94.6903 91.5 95.5426 92.7045 96.6676 93.6023C97.804 94.4886 99.2131 94.9318 100.895 94.9318ZM131.253 98.5455C128.73 98.5455 126.554 97.9886 124.724 96.875C122.906 95.75 121.503 94.1818 120.514 92.1705C119.537 90.1477 119.048 87.7955 119.048 85.1136C119.048 82.4318 119.537 80.0682 120.514 78.0227C121.503 75.9659 122.878 74.3636 124.639 73.2159C126.412 72.0568 128.48 71.4773 130.844 71.4773C132.207 71.4773 133.554 71.7045 134.884 72.1591C136.213 72.6136 137.423 73.3523 138.514 74.375C139.605 75.3864 140.474 76.7273 141.122 78.3977C141.77 80.0682 142.094 82.125 142.094 84.5682V86.2727H121.912V82.7955H138.003C138.003 81.3182 137.707 80 137.116 78.8409C136.537 77.6818 135.707 76.767 134.628 76.0966C133.56 75.4261 132.298 75.0909 130.844 75.0909C129.241 75.0909 127.855 75.4886 126.685 76.2841C125.526 77.0682 124.634 78.0909 124.009 79.3523C123.384 80.6136 123.071 81.9659 123.071 83.4091V85.7273C123.071 87.7045 123.412 89.3807 124.094 90.7557C124.787 92.1193 125.747 93.1591 126.974 93.875C128.202 94.5795 129.628 94.9318 131.253 94.9318C132.31 94.9318 133.264 94.7841 134.116 94.4886C134.98 94.1818 135.724 93.7273 136.349 93.125C136.974 92.5114 137.457 91.75 137.798 90.8409L141.685 91.9318C141.276 93.25 140.588 94.4091 139.622 95.4091C138.656 96.3977 137.463 97.1705 136.043 97.7273C134.622 98.2727 133.026 98.5455 131.253 98.5455ZM150.51 71.8182L156.783 82.5227L163.055 71.8182H167.692L159.237 84.9091L167.692 98H163.055L156.783 87.8409L150.51 98H145.874L154.192 84.9091L145.874 71.8182H150.51Z" fill="black"/>
<rect y="9" width="14" height="89" fill="black"/>
<rect x="29" y="9" width="4" height="89" fill="black"/>
</svg>
