<?xml version="1.0" standalone="no"?>
<!DOCTYPE svg PUBLIC "-//W3C//DTD SVG 20010904//EN"
 "http://www.w3.org/TR/2001/REC-SVG-20010904/DTD/svg10.dtd">
<svg version="1.0" xmlns="http://www.w3.org/2000/svg"
 width="154.000000pt" height="154.000000pt" viewBox="0 0 154.000000 154.000000"
 preserveAspectRatio="xMidYMid meet">
<metadata>
Created by potrace 1.14, written by Peter Selinger 2001-2017
</metadata>
<g transform="translate(0.000000,154.000000) scale(0.100000,-0.100000)"
fill="#000000" stroke="none">
<path d="M55 773 l0 -468 98 -3 97 -3 2 328 3 328 28 -80 c16 -44 41 -116 57
-160 16 -44 55 -155 87 -247 l58 -168 82 0 82 0 10 32 c25 82 210 611 216 616
6 6 6 -25 6 -385 l0 -263 97 0 98 0 -1 468 0 467 -146 3 -145 3 -44 -133
c-130 -403 -168 -512 -174 -498 -3 8 -53 152 -110 320 l-104 305 -148 3 -149
2 0 -467z"/>
<path d="M1260 770 l0 -470 105 0 105 0 0 470 0 470 -105 0 -105 0 0 -470z"/>
</g>
</svg>
