<svg version="1.1" viewBox="0.0 0.0 487.0 100.0" fill="none" stroke="none" stroke-linecap="square" stroke-miterlimit="10" xmlns:xlink="http://www.w3.org/1999/xlink" xmlns="http://www.w3.org/2000/svg"><clipPath id="p.0"><path d="m0 0l487.0 0l0 100.0l-487.0 0l0 -100.0z" clip-rule="nonzero"/></clipPath><g clip-path="url(#p.0)"><path fill="#000000" fill-opacity="0.0" d="m0 0l487.0 0l0 100.0l-487.0 0z" fill-rule="evenodd"/><path fill="#a2ff00" d="m0 0l487.3701 0l0 84.850395l-487.3701 0z" fill-rule="evenodd"/><path fill="#876445" d="m29.625 22.293125q7.6875 0 12.453125 5.03125q4.78125 5.015625 4.78125 14.03125q0 9.015625 -4.671875 14.25q-4.65625 5.234375 -12.5625 5.234375l-16.90625 0l0 -38.546875l16.90625 0zm-0.671875 31.421875q4.0625 0 6.734375 -2.90625q2.6875 -2.921875 2.6875 -8.6875q0 -6.671875 -2.796875 -9.6875q-2.796875 -3.03125 -8.09375 -3.03125l-6.28125 0l0 24.3125l7.75 0zm30.884766 -31.421875l0 6.296875l-7.671875 0l0 -6.296875l7.671875 0zm0 10.625l0 27.921875l-7.671875 0l0 -27.921875l7.671875 0zm17.140625 -0.734375q3.0625 0 5.0625 1.140625q2.0 1.125 3.265625 3.3125l0.109375 0l0 -3.71875l7.28125 0l0 26.359375q0 5.624996 -3.578125 8.874996q-3.578125 3.265625 -10.859375 3.265625q-4.921875 0 -8.453125 -2.359375q-3.53125 -2.359375 -3.875 -6.609371l7.59375 0q0.515625 2.0312462 1.984375 2.9374962q1.484375 0.90625 3.734375 0.90625q2.953125 0 4.5625 -1.78125q1.609375 -1.7656212 1.609375 -4.937496l0 -3.875l-0.109375 0q-1.140625 2.0625 -3.34375 3.203125q-2.1875 1.125 -5.046875 1.125q-5.640625 0 -8.78125 -3.75q-3.125 -3.75 -3.125 -10.28125q0 -5.90625 3.28125 -9.859375q3.28125 -3.953125 8.6875 -3.953125zm-4.296875 13.703125q0 3.9375 1.609375 6.15625q1.625 2.203125 4.578125 2.203125q3.03125 0 4.78125 -2.203125q1.765625 -2.21875 1.765625 -5.546875q0 -4.09375 -1.671875 -6.3125q-1.65625 -2.234375 -4.890625 -2.234375q-2.859375 0 -4.515625 2.171875q-1.65625 2.15625 -1.65625 5.765625zm34.063477 -23.59375l0 6.296875l-7.671875 0l0 -6.296875l7.671875 0zm0 10.625l0 27.921875l-7.671875 0l0 -27.921875l7.671875 0zm15.734375 -8.359375l0 8.359375l5.625 0l0 5.140625l-5.625 0l0 14.0q0 1.71875 0.640625 2.390625q0.65625 0.671875 2.609375 0.671875q0.65625 0 1.265625 -0.046875q0.609375 -0.0625 1.109375 -0.171875l0 5.984375q-0.953125 0.171875 -2.125 0.21875q-1.171875 0.046875 -2.3125 0.046875q-4.984375 0 -6.921875 -1.6875q-1.9375 -1.703125 -1.9375 -4.765625l0 -16.640625l-4.640625 0l0 -5.140625l4.640625 0l0 -8.359375l7.671875 0zm17.198242 -2.265625l0 6.296875l-7.671875 0l0 -6.296875l7.671875 0zm0 10.625l0 27.921875l-7.671875 0l0 -27.921875l7.671875 0zm17.484375 -0.734375q5.6875 0 8.78125 2.25q3.109375 2.25 3.53125 6.625l-7.3125 0q-0.15625 -1.96875 -1.484375 -2.859375q-1.3125 -0.90625 -3.75 -0.90625q-2.21875 0 -3.234375 0.65625q-1.015625 0.65625 -1.015625 1.921875q0 1.296875 1.328125 2.125q1.328125 0.828125 5.359375 1.59375q6.4375 1.25 8.640625 3.203125q2.203125 1.9375 2.203125 5.109375q0 4.75 -3.46875 7.234375q-3.46875 2.46875 -9.265625 2.46875q-5.796875 0 -9.34375 -2.46875q-3.546875 -2.46875 -3.78125 -7.375l7.296875 0q0 2.21875 1.671875 3.46875q1.671875 1.234375 4.203125 1.234375q2.25 0 3.640625 -0.953125q1.40625 -0.96875 1.40625 -2.609375q0 -1.453125 -1.828125 -2.375q-1.8125 -0.921875 -6.671875 -1.921875q-4.796875 -0.953125 -6.9375 -2.71875q-2.125 -1.765625 -2.125 -4.765625q0 -4.4375 3.125 -6.6875q3.140625 -2.25 9.03125 -2.25zm25.441406 -9.890625l0 6.296875l-7.671875 0l0 -6.296875l7.671875 0zm0 10.625l0 27.921875l-7.671875 0l0 -27.921875l7.671875 0zm22.046875 -0.734375q5.34375 0 7.75 2.703125q2.421875 2.703125 2.421875 8.5l0 17.453125l-7.671875 0l0 -16.0q0 -3.28125 -1.125 -4.953125q-1.109375 -1.671875 -3.78125 -1.671875q-3.1875 0 -4.578125 1.90625q-1.375 1.890625 -1.375 5.828125l0 14.890625l-7.65625 0l0 -27.921875l7.28125 0l0 3.90625l0.15625 0q1.40625 -2.25 3.640625 -3.4375q2.25 -1.203125 4.9375 -1.203125zm27.103516 0q3.0625 0 5.0625 1.140625q2.0 1.125 3.265625 3.3125l0.109375 0l0 -3.71875l7.28125 0l0 26.359375q0 5.624996 -3.578125 8.874996q-3.578125 3.265625 -10.859375 3.265625q-4.921875 0 -8.453125 -2.359375q-3.53125 -2.359375 -3.875 -6.609371l7.59375 0q0.515625 2.0312462 1.984375 2.9374962q1.484375 0.90625 3.734375 0.90625q2.953125 0 4.5625 -1.78125q1.609375 -1.7656212 1.609375 -4.937496l0 -3.875l-0.109375 0q-1.140625 2.0625 -3.34375 3.203125q-2.1875 1.125 -5.046875 1.125q-5.640625 0 -8.78125 -3.75q-3.125 -3.75 -3.125 -10.28125q0 -5.90625 3.28125 -9.859375q3.28125 -3.953125 8.6875 -3.953125zm-4.296875 13.703125q0 3.9375 1.609375 6.15625q1.625 2.203125 4.578125 2.203125q3.03125 0 4.78125 -2.203125q1.765625 -2.21875 1.765625 -5.546875q0 -4.09375 -1.671875 -6.3125q-1.65625 -2.234375 -4.890625 -2.234375q-2.859375 0 -4.515625 2.171875q-1.65625 2.15625 -1.65625 5.765625zm62.98828 -23.59375q4.671875 0 7.875 3.015625q3.203125 3.0 3.203125 7.640625q0 3.625 -1.515625 6.015625q-1.515625 2.390625 -4.609375 3.625l0 0.109375q2.71875 0.71875 4.171875 3.25q1.453125 2.53125 1.578125 7.75q0.109375 5.21875 1.5 7.140625l-8.484375 0q-0.734375 -1.875 -1.0 -6.0625q-0.40625 -5.703125 -1.921875 -7.34375q-1.515625 -1.65625 -4.640625 -1.65625l-8.6875 0l0 15.0625l-8.484375 0l0 -38.546875l21.015625 0zm-3.0625 17.421875q2.671875 0 4.15625 -1.28125q1.484375 -1.296875 1.484375 -4.21875q0 -2.75 -1.4375 -4.03125q-1.4375 -1.296875 -4.203125 -1.296875l-9.46875 0l0 10.828125l9.46875 0zm33.15332 -7.53125q6.1875 0 9.890625 4.265625q3.703125 4.25 3.703125 10.859375l-0.046875 1.421875l-20.140625 0q0.15625 3.625 1.875 5.359375q1.734375 1.734375 4.953125 1.734375q2.078125 0 3.84375 -1.0625q1.765625 -1.0625 2.25 -2.578125l6.75 0q-1.5625 4.75 -4.8125 7.09375q-3.234375 2.328125 -8.265625 2.328125q-6.46875 0 -10.375 -4.078125q-3.890625 -4.09375 -3.890625 -10.609375q0 -6.25 3.984375 -10.484375q4.0 -4.25 10.28125 -4.25zm-6.59375 11.703125l12.46875 0q-0.5625 -3.09375 -2.0 -4.515625q-1.4375 -1.421875 -4.140625 -1.421875q-2.796875 0 -4.4375 1.59375q-1.625 1.578125 -1.890625 4.34375zm38.070312 -11.703125q5.40625 0 9.109375 2.796875q3.703125 2.78125 4.015625 7.765625l-7.515625 0q-0.34375 -2.390625 -1.765625 -3.59375q-1.421875 -1.203125 -3.890625 -1.203125q-3.09375 0 -4.8125 2.53125q-1.703125 2.53125 -1.703125 6.546875q0 4.0 1.6875 6.40625q1.6875 2.390625 4.65625 2.390625q2.5625 0 4.140625 -1.453125q1.59375 -1.46875 1.984375 -4.234375l7.375 0q-0.765625 5.53125 -4.328125 8.5q-3.546875 2.96875 -9.109375 2.96875q-6.21875 0 -10.15625 -3.984375q-3.921875 -4.0 -3.921875 -10.328125q0 -6.78125 3.859375 -10.9375q3.859375 -4.171875 10.375 -4.171875zm25.523438 -9.890625l0 38.546875l-7.671875 0l0 -38.546875l7.671875 0zm18.84375 9.890625q6.203125 0 9.21875 2.03125q3.015625 2.03125 3.015625 5.71875l0 14.96875q0 1.6875 0.21875 3.375q0.234375 1.6875 0.765625 2.5625l-7.78125 0q-0.203125 -0.640625 -0.359375 -1.3125q-0.140625 -0.671875 -0.1875 -1.34375q-1.609375 1.65625 -4.0 2.546875q-2.390625 0.875 -5.390625 0.875q-4.328125 0 -6.921875 -2.171875q-2.578125 -2.1875 -2.578125 -6.21875q0 -3.890625 2.421875 -5.953125q2.4375 -2.078125 8.84375 -2.796875q4.453125 -0.421875 5.875 -1.09375q1.421875 -0.671875 1.421875 -2.328125q0 -1.875 -1.09375 -2.8125q-1.09375 -0.9375 -3.828125 -0.9375q-2.375 0 -3.640625 1.015625q-1.265625 1.015625 -1.484375 3.203125l-7.671875 0q0.328125 -4.59375 3.78125 -6.953125q3.46875 -2.375 9.375 -2.375zm-6.34375 20.71875q0 1.65625 1.125 2.609375q1.140625 0.953125 3.59375 0.953125q3.0625 0 4.625 -1.609375q1.5625 -1.609375 1.5625 -4.6875l0 -2.984375q-0.671875 0.546875 -1.796875 0.828125q-1.125 0.28125 -4.046875 0.703125q-2.609375 0.34375 -3.84375 1.359375q-1.21875 1.015625 -1.21875 2.828125zm32.429688 -30.609375l0 6.296875l-7.671875 0l0 -6.296875l7.671875 0zm0 10.625l0 27.921875l-7.671875 0l0 -27.921875l7.671875 0zm22.125 -0.734375q3.109375 0 5.140625 1.203125q2.03125 1.1875 3.0 3.4375q1.578125 -2.25 3.734375 -3.4375q2.171875 -1.203125 4.734375 -1.203125q5.0625 0 7.609375 2.578125q2.5625 2.578125 2.5625 7.140625l0 18.9375l-7.671875 0l0 -16.140625q0 -3.8125 -1.125 -5.140625q-1.109375 -1.34375 -3.5625 -1.34375q-2.59375 0 -3.875 1.75q-1.265625 1.734375 -1.265625 5.078125l0 15.796875l-7.671875 0l0 -17.1875q0 -2.765625 -1.0625 -4.09375q-1.046875 -1.34375 -3.5625 -1.34375q-2.1875 0 -3.6875 1.6875q-1.5 1.6875 -1.5 4.5625l0 16.375l-7.671875 0l0 -27.921875l7.21875 0l0 3.796875l0.109375 0q1.640625 -2.296875 3.78125 -3.40625q2.15625 -1.125 4.765625 -1.125z" fill-rule="nonzero"/></g></svg>