<?xml version="1.0" encoding="utf-8"?>
<svg viewBox="0 0 468.848 121.854" xmlns="http://www.w3.org/2000/svg">
  <path d="M 78.803 43.343 L 101.329 43.343 Q 100.292 34.155 96.291 27.041 Q 92.289 19.928 86.139 15.111 Q 79.989 10.295 72.208 7.775 Q 64.428 5.256 55.684 5.256 Q 43.531 5.256 33.824 9.554 Q 24.117 13.851 17.448 21.41 Q 10.779 28.968 7.222 39.12 Q 3.666 49.271 3.666 61.127 Q 3.666 72.687 7.222 82.69 Q 10.779 92.694 17.448 100.104 Q 24.117 107.514 33.824 111.738 Q 43.531 115.961 55.684 115.961 Q 65.465 115.961 73.616 112.997 Q 81.767 110.033 87.843 104.402 Q 93.919 98.77 97.624 90.767 Q 101.329 82.764 102.219 72.835 L 79.692 72.835 Q 78.358 83.505 72.356 90.026 Q 66.354 96.547 55.684 96.547 Q 47.829 96.547 42.346 93.509 Q 36.862 90.471 33.454 85.432 Q 30.045 80.393 28.489 74.095 Q 26.933 67.796 26.933 61.127 Q 26.933 54.162 28.489 47.641 Q 30.045 41.12 33.454 36.007 Q 36.862 30.894 42.346 27.856 Q 47.829 24.818 55.684 24.818 Q 59.982 24.818 63.909 26.226 Q 67.836 27.634 70.948 30.153 Q 74.061 32.673 76.135 36.007 Q 78.21 39.342 78.803 43.343 Z M 133.582 25.115 L 133.582 7.775 L 112.538 7.775 L 112.538 25.115 Z M 112.538 36.971 L 112.538 113.59 L 133.582 113.59 L 133.582 36.971 Z M 146.282 36.971 L 146.282 113.59 L 167.326 113.59 L 167.326 79.059 Q 167.326 73.872 168.364 69.426 Q 169.401 64.98 171.846 61.646 Q 174.292 58.311 178.293 56.385 Q 182.294 54.458 188.074 54.458 Q 190.001 54.458 192.076 54.681 Q 194.15 54.903 195.632 55.199 L 195.632 35.637 Q 193.113 34.896 191.038 34.896 Q 187.037 34.896 183.332 36.081 Q 179.627 37.267 176.366 39.416 Q 173.106 41.565 170.587 44.603 Q 168.067 47.641 166.585 51.198 L 166.289 51.198 L 166.289 36.971 Z M 250.863 63.943 L 271.463 63.943 Q 271.019 56.533 267.906 51.124 Q 264.794 45.714 259.829 42.084 Q 254.865 38.453 248.566 36.674 Q 242.268 34.896 235.451 34.896 Q 226.114 34.896 218.852 38.008 Q 211.59 41.12 206.552 46.678 Q 201.513 52.235 198.919 59.868 Q 196.326 67.5 196.326 76.392 Q 196.326 84.987 199.142 92.175 Q 201.957 99.363 206.996 104.55 Q 212.035 109.737 219.223 112.627 Q 226.41 115.517 235.006 115.517 Q 250.271 115.517 260.052 107.514 Q 269.833 99.511 271.908 84.246 L 251.604 84.246 Q 250.567 91.36 246.491 95.584 Q 242.416 99.807 234.858 99.807 Q 229.967 99.807 226.559 97.584 Q 223.15 95.361 221.149 91.879 Q 219.149 88.396 218.259 84.098 Q 217.37 79.8 217.37 75.651 Q 217.37 71.353 218.259 66.981 Q 219.149 62.609 221.297 58.978 Q 223.446 55.347 226.855 53.05 Q 230.264 50.753 235.302 50.753 Q 248.789 50.753 250.863 63.943 Z M 279.119 7.775 L 279.119 113.59 L 300.164 113.59 L 300.164 7.775 Z M 384.74 113.59 L 384.74 36.971 L 363.696 36.971 L 363.696 77.133 Q 363.696 88.841 359.843 93.954 Q 355.989 99.066 347.394 99.066 Q 339.836 99.066 336.872 94.398 Q 333.908 89.73 333.908 80.245 L 333.908 36.971 L 312.863 36.971 L 312.863 84.098 Q 312.863 91.212 314.123 97.066 Q 315.383 102.92 318.495 106.995 Q 321.607 111.071 327.016 113.294 Q 332.426 115.517 340.873 115.517 Q 347.542 115.517 353.915 112.553 Q 360.287 109.589 364.289 102.92 L 364.733 102.92 L 364.733 113.59 Z M 413.151 88.692 L 393.144 88.692 Q 393.441 96.399 396.627 101.512 Q 399.813 106.625 404.778 109.737 Q 409.743 112.849 416.115 114.183 Q 422.488 115.517 429.157 115.517 Q 435.678 115.517 441.976 114.257 Q 448.275 112.997 453.165 109.885 Q 458.056 106.773 461.094 101.66 Q 464.132 96.547 464.132 88.989 Q 464.132 83.654 462.057 80.023 Q 459.982 76.392 456.574 73.947 Q 453.165 71.501 448.793 70.019 Q 444.421 68.537 439.827 67.5 Q 435.381 66.462 431.083 65.573 Q 426.786 64.684 423.451 63.573 Q 420.117 62.461 418.042 60.683 Q 415.967 58.904 415.967 56.088 Q 415.967 53.717 417.153 52.309 Q 418.338 50.901 420.043 50.16 Q 421.747 49.419 423.822 49.197 Q 425.896 48.975 427.675 48.975 Q 433.306 48.975 437.456 51.124 Q 441.606 53.273 442.05 59.349 L 462.057 59.349 Q 461.464 52.235 458.426 47.567 Q 455.388 42.899 450.794 40.083 Q 446.2 37.267 440.346 36.081 Q 434.492 34.896 428.268 34.896 Q 422.043 34.896 416.115 36.007 Q 410.187 37.119 405.445 39.861 Q 400.702 42.602 397.813 47.345 Q 394.923 52.087 394.923 59.497 Q 394.923 64.536 396.997 68.019 Q 399.072 71.501 402.481 73.798 Q 405.889 76.095 410.261 77.503 Q 414.633 78.911 419.227 79.949 Q 430.491 82.32 436.789 84.691 Q 443.088 87.062 443.088 91.805 Q 443.088 94.62 441.754 96.473 Q 440.42 98.325 438.419 99.437 Q 436.419 100.548 433.973 101.067 Q 431.528 101.586 429.305 101.586 Q 426.193 101.586 423.303 100.845 Q 420.413 100.104 418.19 98.548 Q 415.967 96.992 414.559 94.546 Q 413.151 92.101 413.151 88.692 Z" style="fill: rgb(51, 51, 51); white-space: pre;"/>
</svg>