<?xml version="1.0" standalone="no"?>
<!DOCTYPE svg PUBLIC "-//W3C//DTD SVG 20010904//EN"
 "http://www.w3.org/TR/2001/REC-SVG-20010904/DTD/svg10.dtd">
<svg version="1.0" xmlns="http://www.w3.org/2000/svg"
 width="606.000000pt" height="606.000000pt" viewBox="0 0 606.000000 606.000000"
 preserveAspectRatio="xMidYMid meet">
<metadata>
Created by potrace 1.14, written by Peter Selinger 2001-2017
</metadata>
<g transform="translate(0.000000,606.000000) scale(0.100000,-0.100000)"
fill="#000000" stroke="none">
<path d="M2380 6005 c-329 -69 -659 -200 -955 -379 -102 -61 -246 -159 -301
-205 -17 -14 -42 -35 -55 -45 -147 -118 -324 -297 -450 -456 -120 -152 -103
-128 -170 -230 -108 -165 -171 -279 -239 -435 -97 -224 -104 -241 -94 -257 4
-7 3 -10 -1 -5 -11 9 -37 -63 -29 -83 3 -8 2 -11 -3 -7 -8 9 -56 -161 -48
-173 3 -5 1 -10 -5 -12 -5 -1 -13 -21 -17 -43 -9 -44 -10 -1301 -2 -1325 3 -8
9 -33 14 -55 4 -22 10 -44 13 -50 3 -5 7 -16 7 -25 4 -38 17 -80 25 -75 4 3 6
-4 3 -15 -3 -11 0 -27 7 -35 7 -8 9 -15 6 -15 -4 0 -2 -9 4 -21 6 -11 13 -28
15 -38 9 -49 99 -260 108 -254 6 3 7 1 3 -5 -9 -14 114 -263 126 -256 5 3 7 2
6 -3 -4 -13 23 -73 33 -73 5 0 9 -5 9 -11 0 -10 135 -218 149 -229 3 -3 25
-30 47 -60 43 -57 50 -65 137 -164 344 -391 819 -701 1336 -872 240 -80 173
-75 972 -72 l714 3 87 24 c48 13 86 27 84 30 -2 3 8 7 22 8 68 5 444 167 604
260 241 141 435 290 628 483 148 148 163 165 263 293 210 269 374 574 487 906
23 66 43 130 45 142 3 12 11 45 19 73 8 28 27 112 42 186 28 132 28 144 32
530 3 361 -1 453 -23 572 -41 213 -89 386 -159 573 -114 300 -328 661 -536
900 -44 51 -273 280 -322 323 -382 330 -865 569 -1368 676 -114 24 -121 25
-635 25 -510 0 -522 -1 -635 -24z"/>
</g>
</svg>
